# Blender v2.79 (sub 0) OBJ File: ''
# www.blender.org
mtllib Cap.mtl
o Cap.Merged_Plane-tex.003
v 0.137931 0.281355 -0.169501
v 0.137931 0.212389 0.175326
v 0.137931 0.212389 -0.169501
v 0.137931 0.281355 0.175326
v 0.137931 0.143424 0.244292
v 0.137931 0.143424 0.175326
v 0.137931 0.212389 0.244292
v 0.137931 0.074458 0.451188
v 0.137931 0.074458 0.244292
v 0.137931 0.143424 0.520154
v 0.137931 0.074458 0.520154
v -0.068966 0.074458 -0.307433
v -0.068966 0.143424 -0.307433
v -0.068966 0.143424 -0.238467
v -0.068966 0.074458 -0.169501
v -0.068966 0.143424 -0.169501
v 0.206897 0.212389 -0.238467
v 0.206897 0.143424 0.175326
v 0.206897 0.143424 -0.238467
v 0.206897 0.212389 0.175326
v 0.206897 0.074458 0.244292
v 0.206897 0.005493 0.175326
v 0.206897 0.005493 0.451188
v 0.206897 0.143424 0.244292
v 0.206897 0.074458 0.451188
v 0.206897 0.143424 -0.307433
v 0.206897 0.005493 -0.238467
v 0.206897 0.005493 -0.307433
v -0.137931 0.074458 0.175326
v -0.137931 0.005493 0.451188
v -0.137931 0.005493 0.175326
v -0.137931 0.074458 0.451188
v 0.275862 0.143424 -0.238467
v 0.275862 0.005493 0.175326
v 0.275862 0.005493 -0.238467
v 0.275862 0.143424 0.175326
v -0.137931 0.281355 -0.169501
v -0.137931 0.212389 0.175326
v -0.137931 0.212389 -0.169501
v -0.137931 0.281355 0.175326
v -0.137931 0.143424 0.244292
v -0.137931 0.143424 0.175326
v -0.137931 0.212389 0.244292
v -0.137931 0.074458 0.244292
v -0.137931 0.143424 0.520154
v -0.137931 0.074458 0.520154
v 0.068965 0.074458 -0.307433
v 0.068965 0.143424 -0.307433
v 0.068965 0.143424 -0.238467
v 0.068965 0.074458 -0.169501
v 0.068965 0.143424 -0.169501
v -0.206897 0.212389 -0.238467
v -0.206897 0.143424 0.175326
v -0.206897 0.143424 -0.238467
v -0.206897 0.212389 0.175326
v -0.206897 0.074458 0.244292
v -0.206897 0.005493 0.175326
v -0.206897 0.005493 0.451188
v -0.206897 0.143424 0.244292
v -0.206897 0.074458 0.451188
v -0.206897 0.143424 -0.307432
v -0.206897 0.005493 -0.238467
v -0.206897 0.005493 -0.307432
v 0.137931 0.074458 0.175326
v 0.137931 0.005493 0.451188
v 0.137931 0.005493 0.175326
v -0.275862 0.143424 -0.238467
v -0.275862 0.005493 0.175326
v -0.275862 0.005493 -0.238467
v -0.275862 0.143424 0.175326
vt 0.780690 0.908845
vt 0.797572 0.908845
vt 0.780690 0.891963
vt 0.797572 0.908845
vt 0.780690 0.891963
vt 0.780690 0.908845
vt 0.797572 0.908845
vt 0.780690 0.891963
vt 0.797572 0.908845
vt 0.780690 0.891963
vt 0.780690 0.858091
vt 0.797572 0.858091
vt 0.780690 0.841208
vt 0.780688 0.880647
vt 0.797575 0.875016
vt 0.780690 0.908845
vt 0.797572 0.908845
vt 0.780690 0.891963
vt 0.780690 0.908845
vt 0.797572 0.908845
vt 0.780690 0.891963
vt 0.780686 0.891920
vt 0.797579 0.875021
vt 0.780686 0.858122
vt 0.780690 0.858091
vt 0.797572 0.858091
vt 0.780690 0.841208
vt 0.780690 0.858091
vt 0.797572 0.858091
vt 0.780690 0.841208
vt 0.797572 0.858091
vt 0.780690 0.841208
vt 0.780690 0.908845
vt 0.797572 0.908845
vt 0.780690 0.891963
vt 0.780690 0.908845
vt 0.797572 0.908845
vt 0.797572 0.908845
vt 0.780690 0.891963
vt 0.797572 0.908845
vt 0.780690 0.891963
vt 0.780690 0.908845
vt 0.797572 0.908845
vt 0.780690 0.891963
vt 0.797572 0.908845
vt 0.780690 0.891963
vt 0.780690 0.908845
vt 0.797572 0.908845
vt 0.780690 0.891963
vt 0.797572 0.908845
vt 0.780690 0.891963
vt 0.797587 0.858131
vt 0.780696 0.891925
vt 0.797587 0.891925
vt 0.780687 0.858117
vt 0.797572 0.908845
vt 0.780690 0.908845
vt 0.780690 0.891963
vt 0.797572 0.908845
vt 0.780690 0.891963
vt 0.797572 0.908845
vt 0.780690 0.908845
vt 0.780690 0.891963
vt 0.797572 0.908845
vt 0.780690 0.891963
vt 0.797572 0.858091
vt 0.780690 0.858091
vt 0.780690 0.841208
vt 0.780688 0.880647
vt 0.797575 0.875016
vt 0.797572 0.908845
vt 0.780690 0.908845
vt 0.780690 0.891963
vt 0.797572 0.908845
vt 0.780690 0.908845
vt 0.780690 0.891963
vt 0.797579 0.875021
vt 0.780686 0.891920
vt 0.780686 0.858122
vt 0.797572 0.858091
vt 0.780690 0.858091
vt 0.780690 0.841208
vt 0.797572 0.858091
vt 0.780690 0.858091
vt 0.780690 0.841208
vt 0.797572 0.858091
vt 0.780690 0.841208
vt 0.797572 0.908845
vt 0.780690 0.908845
vt 0.780690 0.891963
vt 0.797572 0.908845
vt 0.780690 0.908845
vt 0.797572 0.908845
vt 0.780690 0.891963
vt 0.797572 0.908845
vt 0.780690 0.891963
vt 0.797572 0.908845
vt 0.780690 0.908845
vt 0.780690 0.891963
vt 0.797572 0.908845
vt 0.780690 0.891963
vt 0.797572 0.908845
vt 0.780690 0.908845
vt 0.780690 0.891963
vt 0.797572 0.908845
vt 0.780690 0.891963
vt 0.780696 0.891925
vt 0.797587 0.858131
vt 0.797587 0.891925
vt 0.780687 0.858117
vt 0.797572 0.908845
vt 0.780690 0.908845
vt 0.780690 0.908845
vt 0.797572 0.908845
vt 0.780690 0.908845
vt 0.780690 0.908845
vt 0.797572 0.908845
vt 0.780690 0.908845
vt 0.797572 0.908845
vt 0.797572 0.908845
vt 0.780690 0.908845
vt 0.780690 0.908845
vt 0.780690 0.891963
vt 0.797572 0.908845
vt 0.780690 0.891963
vt 0.780690 0.858091
vt 0.780690 0.841208
vt 0.780690 0.841208
vt 0.780690 0.908845
vt 0.780690 0.891963
vt 0.780690 0.841208
vt 0.780690 0.841208
vt 0.780690 0.858091
vt 0.797572 0.858091
vt 0.797572 0.908845
vt 0.780690 0.891963
vt 0.797584 0.880636
vt 0.797584 0.858115
vt 0.780690 0.908845
vt 0.780690 0.891963
vt 0.797572 0.908845
vt 0.780690 0.891963
vt 0.780690 0.908845
vt 0.780690 0.891963
vt 0.780690 0.891963
vt 0.780690 0.858091
vt 0.797572 0.858091
vt 0.780690 0.841208
vt 0.780690 0.841208
vt 0.780690 0.891963
vt 0.797572 0.908845
vt 0.780690 0.891963
vt 0.797572 0.908845
vt 0.780690 0.891963
vt 0.780690 0.908845
vt 0.780690 0.891963
vt 0.797572 0.858091
vt 0.780690 0.841208
vt 0.780690 0.858091
vt 0.797572 0.858091
vt 0.780690 0.841208
vt 0.780690 0.858091
vt 0.780690 0.858091
vt 0.797572 0.858091
vt 0.797572 0.858091
vt 0.780690 0.841208
vt 0.780690 0.891963
vt 0.780690 0.891963
vt 0.780690 0.891963
vt 0.780690 0.908845
vt 0.797572 0.908845
vt 0.797572 0.908845
vt 0.780687 0.858131
vt 0.780687 0.891925
vt 0.797572 0.858091
vt 0.780690 0.841208
vt 0.797572 0.858091
vt 0.797572 0.858091
vt 0.797577 0.891925
vt 0.780687 0.858131
vt 0.780687 0.891925
vt 0.797587 0.858117
vt 0.797572 0.908845
vt 0.797572 0.908845
vt 0.797572 0.908845
vt 0.780690 0.891963
vt 0.797572 0.908845
vt 0.780687 0.858131
vt 0.797577 0.891925
vt 0.780687 0.891925
vt 0.780690 0.841208
vt 0.780690 0.841208
vt 0.797572 0.908845
vt 0.797572 0.908845
vt 0.780690 0.891963
vt 0.780690 0.858091
vt 0.797577 0.891925
vt 0.780690 0.908845
vt 0.780690 0.908845
vt 0.780690 0.908845
vt 0.797572 0.908845
vt 0.780690 0.908845
vt 0.797572 0.908845
vt 0.780690 0.891963
vn 1.0000 0.0000 -0.0000
vn -1.0000 0.0000 0.0000
vn 0.0000 -1.0000 0.0000
vn 0.0000 1.0000 -0.0000
vn 0.0000 0.0000 -1.0000
vn 0.0000 0.0000 1.0000
usemtl lambert0.003
s off
f 1/1/1 2/2/1 3/3/1
f 1/1/1 4/4/1 2/5/1
f 2/6/1 5/7/1 6/8/1
f 2/6/1 7/9/1 5/10/1
f 5/11/1 8/12/1 9/13/1
f 5/11/1 10/14/1 8/15/1
f 10/16/1 11/17/1 8/18/1
f 12/19/1 13/20/1 14/21/1
f 12/22/1 14/23/1 15/24/1
f 14/25/1 16/26/1 15/27/1
f 17/28/1 18/29/1 19/30/1
f 17/28/1 20/31/1 18/32/1
f 18/33/1 21/34/1 22/35/1
f 21/36/1 23/37/1 22/35/1
f 18/33/1 24/38/1 21/39/1
f 21/36/1 25/40/1 23/41/1
f 26/42/1 27/43/1 28/44/1
f 26/42/1 19/45/1 27/46/1
f 29/47/1 30/48/1 31/49/1
f 29/47/1 32/50/1 30/51/1
f 33/52/1 34/53/1 35/54/1
f 33/52/1 36/55/1 34/53/1
f 38/56/2 37/57/2 39/58/2
f 40/59/2 37/57/2 38/60/2
f 41/61/2 38/62/2 42/63/2
f 43/64/2 38/62/2 41/65/2
f 32/66/2 41/67/2 44/68/2
f 45/69/2 41/67/2 32/70/2
f 46/71/2 45/72/2 32/73/2
f 48/74/2 47/75/2 49/76/2
f 49/77/2 47/78/2 50/79/2
f 51/80/2 49/81/2 50/82/2
f 53/83/2 52/84/2 54/85/2
f 55/86/2 52/84/2 53/87/2
f 56/88/2 53/89/2 57/90/2
f 58/91/2 56/92/2 57/90/2
f 59/93/2 53/89/2 56/94/2
f 60/95/2 56/92/2 58/96/2
f 62/97/2 61/98/2 63/99/2
f 54/100/2 61/98/2 62/101/2
f 65/102/2 64/103/2 66/104/2
f 8/105/2 64/103/2 65/106/2
f 68/107/2 67/108/2 69/109/2
f 70/110/2 67/108/2 68/107/2
f 57/111/3 69/112/3 62/101/3
f 57/111/3 62/113/3 31/49/3
f 68/114/3 69/112/3 57/90/3
f 30/48/3 57/115/3 31/49/3
f 62/97/3 27/116/3 31/49/3
f 58/91/3 57/115/3 30/51/3
f 66/117/3 31/118/3 27/46/3
f 63/119/3 27/116/3 62/101/3
f 22/120/3 66/121/3 27/46/3
f 27/43/3 63/122/3 28/44/3
f 22/120/3 27/116/3 34/123/3
f 23/37/3 66/121/3 22/35/3
f 34/124/3 27/116/3 35/125/3
f 65/102/3 66/121/3 23/41/3
f 8/12/3 29/126/3 64/127/3
f 32/66/3 29/126/3 8/128/3
f 11/17/3 32/129/3 8/18/3
f 46/71/3 32/129/3 11/130/3
f 51/80/3 14/25/3 49/131/3
f 16/26/3 14/25/3 51/132/3
f 67/133/4 53/83/4 54/85/4
f 67/133/4 70/134/4 53/87/4
f 53/89/4 41/61/4 42/63/4
f 53/89/4 59/93/4 41/65/4
f 61/98/4 14/135/4 13/136/4
f 61/98/4 54/100/4 14/21/4
f 41/67/4 10/137/4 5/138/4
f 41/67/4 45/69/4 10/137/4
f 48/139/4 19/45/4 26/140/4
f 48/139/4 49/141/4 19/142/4
f 6/143/4 24/38/4 18/144/4
f 6/143/4 5/7/4 24/145/4
f 19/146/4 36/147/4 33/148/4
f 19/146/4 18/29/4 36/149/4
f 56/92/4 32/50/4 44/150/4
f 56/92/4 60/95/4 32/73/4
f 12/19/4 50/151/4 47/152/4
f 12/19/4 15/153/4 50/154/4
f 9/155/4 25/40/4 21/39/4
f 9/155/4 8/105/4 25/156/4
f 52/84/4 39/157/4 17/158/4
f 39/159/4 3/160/4 17/158/4
f 52/84/4 55/86/4 39/161/4
f 3/162/4 20/31/4 17/158/4
f 55/163/4 38/164/4 39/161/4
f 3/162/4 2/165/4 20/166/4
f 38/62/4 7/9/4 2/5/4
f 38/62/4 43/64/4 7/167/4
f 37/57/4 4/4/4 1/168/4
f 37/57/4 40/59/4 4/169/4
f 39/170/5 1/171/5 3/3/5
f 39/170/5 37/172/5 1/168/5
f 15/24/5 51/80/5 50/82/5
f 15/24/5 16/26/5 51/132/5
f 69/109/5 54/173/5 62/174/5
f 69/109/5 67/108/5 54/173/5
f 14/25/5 54/175/5 52/176/5
f 17/28/5 14/177/5 52/176/5
f 49/81/5 14/177/5 17/158/5
f 49/81/5 17/178/5 19/30/5
f 27/179/5 33/180/5 35/181/5
f 27/179/5 19/182/5 33/180/5
f 63/122/5 12/183/5 28/44/5
f 12/19/5 47/184/5 28/44/5
f 63/122/5 61/185/5 12/186/5
f 47/75/5 26/187/5 28/44/5
f 61/98/5 13/20/5 12/186/5
f 47/75/5 48/74/5 26/140/5
f 53/188/6 68/189/6 57/190/6
f 70/134/6 68/189/6 53/188/6
f 38/164/6 53/188/6 42/191/6
f 55/86/6 53/188/6 38/192/6
f 4/4/6 38/62/6 2/5/6
f 40/59/6 38/62/6 4/169/6
f 64/193/6 31/118/6 66/104/6
f 29/194/6 31/118/6 64/195/6
f 20/31/6 6/196/6 18/32/6
f 2/165/6 6/196/6 20/166/6
f 36/55/6 22/197/6 34/53/6
f 18/29/6 22/197/6 36/55/6
f 41/61/6 56/92/6 44/150/6
f 59/93/6 56/92/6 41/65/6
f 7/9/6 41/198/6 5/10/6
f 43/64/6 41/198/6 7/167/6
f 24/38/6 9/155/6 21/39/6
f 5/7/6 9/155/6 24/145/6
f 32/50/6 58/199/6 30/51/6
f 60/95/6 58/199/6 32/73/6
f 25/40/6 65/200/6 23/41/6
f 8/105/6 65/200/6 25/156/6
f 10/201/6 46/202/6 11/130/6
f 45/203/6 46/202/6 10/204/6
