# Blender v2.79 (sub 0) OBJ File: ''
# www.blender.org
mtllib Magazine.mtl
o Magazine.Merged_Plane-tex.005
v 0.010000 0.019864 -0.000000
v -0.010000 -0.000136 0.000000
v 0.010000 -0.000136 -0.000000
v -0.010000 0.019864 0.000000
v -0.030000 -0.040136 0.000000
v -0.010000 -0.040136 0.000000
v -0.030000 -0.000136 0.000000
v 0.030000 -0.000136 -0.000000
v 0.010000 -0.040136 -0.000000
v 0.030000 -0.040136 -0.000000
v 0.010000 -0.000136 0.020000
v -0.010000 -0.040136 0.020000
v 0.010000 -0.040136 0.020000
v -0.010000 -0.000136 0.020000
v -0.030000 -0.080136 0.020000
v -0.010000 -0.080136 0.020000
v -0.030000 -0.040136 0.020000
v 0.030000 -0.040136 0.020000
v 0.010000 -0.080136 0.020000
v 0.030000 -0.080136 0.020000
v 0.010000 -0.040136 0.040000
v -0.010000 -0.080136 0.040000
v 0.010000 -0.080136 0.040000
v -0.010000 -0.040136 0.040000
v -0.030000 -0.120136 0.040000
v -0.010000 -0.120136 0.040000
v -0.030000 -0.080136 0.040000
v 0.030000 -0.080136 0.040000
v 0.010000 -0.120136 0.040000
v 0.030000 -0.120136 0.040000
v 0.010000 -0.080136 0.060000
v -0.010000 -0.120136 0.060000
v 0.010000 -0.120136 0.060000
v -0.010000 -0.080136 0.060000
v -0.030000 -0.140136 0.060000
v -0.010000 -0.140136 0.060000
v -0.030000 -0.120136 0.060000
v 0.030000 -0.120136 0.060000
v 0.010000 -0.140136 0.060000
v 0.030000 -0.140136 0.060000
v 0.030000 -0.200136 0.060000
v -0.030000 -0.220136 0.060000
v 0.030000 -0.220136 0.060000
v -0.030000 -0.200136 0.060000
v 0.010000 -0.120136 0.080000
v -0.010000 -0.140136 0.080000
v 0.010000 -0.140136 0.080000
v -0.010000 -0.120136 0.080000
v 0.030000 -0.140136 0.080000
v 0.010000 -0.180136 0.080000
v 0.030000 -0.200136 0.080000
v -0.030000 -0.200136 0.080000
v -0.010000 -0.180136 0.080000
v -0.030000 -0.140136 0.080000
v 0.010000 -0.140136 0.100000
v -0.010000 -0.180136 0.100000
v 0.010000 -0.180136 0.100000
v -0.010000 -0.140136 0.100000
v 0.030000 -0.180136 -0.000000
v -0.030000 -0.200136 0.000000
v 0.030000 -0.200136 -0.000000
v -0.030000 -0.180136 0.000000
v 0.030000 -0.160136 -0.020000
v -0.030000 -0.180136 -0.020000
v 0.030000 -0.180136 -0.020000
v -0.030000 -0.160136 -0.020000
v 0.030000 -0.120136 -0.040000
v -0.030000 -0.160136 -0.040000
v 0.030000 -0.160136 -0.040000
v -0.030000 -0.120136 -0.040000
v 0.030000 -0.200136 0.020000
v -0.030000 -0.220136 0.020000
v 0.030000 -0.220136 0.020000
v -0.030000 -0.200136 0.020000
v 0.030000 -0.080136 -0.060000
v -0.030000 -0.120136 -0.060000
v 0.030000 -0.120136 -0.060000
v -0.030000 -0.080136 -0.060000
v 0.010000 0.019864 -0.080000
v -0.010000 -0.000136 -0.080000
v 0.010000 -0.000136 -0.080000
v -0.030000 -0.020136 -0.080000
v -0.010000 0.019864 -0.080000
v -0.030000 -0.000136 -0.080000
v 0.030000 -0.020136 -0.080000
v 0.030000 -0.000136 -0.080000
v 0.030000 -0.040136 -0.080000
v -0.030000 -0.080136 -0.080000
v 0.030000 -0.080136 -0.080000
v -0.030000 -0.040136 -0.080000
v 0.030000 -0.020136 -0.100000
v -0.030000 -0.040136 -0.100000
v 0.030000 -0.040136 -0.100000
v -0.030000 -0.020136 -0.100000
vt 0.187161 0.484215
vt 0.202724 0.484215
vt 0.187161 0.468652
vt 0.202724 0.484215
vt 0.187161 0.468652
vt 0.187161 0.484215
vt 0.202724 0.484215
vt 0.187161 0.468652
vt 0.202724 0.484215
vt 0.187161 0.468652
vt 0.187161 0.484215
vt 0.202724 0.484215
vt 0.187161 0.468652
vt 0.202724 0.484215
vt 0.187161 0.468652
vt 0.187161 0.484215
vt 0.202724 0.484215
vt 0.187161 0.468652
vt 0.202724 0.484215
vt 0.187161 0.468652
vt 0.187161 0.484215
vt 0.202724 0.484215
vt 0.187161 0.468652
vt 0.202724 0.484215
vt 0.187161 0.468652
vt 0.187161 0.484215
vt 0.202724 0.484215
vt 0.187161 0.468652
vt 0.202724 0.484215
vt 0.187161 0.468652
vt 0.187161 0.484215
vt 0.202724 0.484215
vt 0.187161 0.468652
vt 0.202724 0.484215
vt 0.187161 0.468652
vt 0.187161 0.484215
vt 0.202724 0.484215
vt 0.187161 0.468652
vt 0.202724 0.484215
vt 0.187161 0.468652
vt 0.187161 0.484215
vt 0.202724 0.484215
vt 0.187161 0.468652
vt 0.202724 0.484215
vt 0.187161 0.468652
vt 0.187161 0.484215
vt 0.202724 0.484215
vt 0.187161 0.468652
vt 0.202724 0.484215
vt 0.187161 0.468652
vt 0.187161 0.484215
vt 0.202724 0.484215
vt 0.187161 0.468652
vt 0.202724 0.484215
vt 0.187161 0.468652
vt 0.187161 0.484215
vt 0.202724 0.484215
vt 0.187161 0.468652
vt 0.202724 0.484215
vt 0.187161 0.468652
vt 0.187161 0.484215
vt 0.202724 0.484215
vt 0.187161 0.468652
vt 0.202724 0.484215
vt 0.187161 0.468652
vt 0.187161 0.484215
vt 0.202724 0.484215
vt 0.187161 0.468652
vt 0.202724 0.484215
vt 0.187161 0.468652
vt 0.187161 0.484215
vt 0.202724 0.484215
vt 0.187161 0.468652
vt 0.187161 0.484215
vt 0.202724 0.484215
vt 0.202724 0.484215
vt 0.187161 0.468652
vt 0.202724 0.484215
vt 0.187161 0.468652
vt 0.187161 0.484215
vt 0.187161 0.468652
vt 0.187161 0.484215
vt 0.187161 0.484215
vt 0.202724 0.484215
vt 0.187161 0.468652
vt 0.202724 0.484215
vt 0.187161 0.468652
vt 0.202724 0.484215
vt 0.187161 0.484215
vt 0.187161 0.468652
vt 0.202724 0.484215
vt 0.187161 0.468652
vt 0.202724 0.484215
vt 0.187161 0.484215
vt 0.187161 0.468652
vt 0.202724 0.484215
vt 0.187161 0.468652
vt 0.202724 0.484215
vt 0.187161 0.484215
vt 0.187161 0.468652
vt 0.202724 0.484215
vt 0.187161 0.468652
vt 0.202724 0.484215
vt 0.187161 0.484215
vt 0.187161 0.468652
vt 0.202724 0.484215
vt 0.187161 0.468652
vt 0.202724 0.484215
vt 0.187161 0.484215
vt 0.187161 0.468652
vt 0.202724 0.484215
vt 0.187161 0.468652
vt 0.202724 0.484215
vt 0.187161 0.484215
vt 0.187161 0.468652
vt 0.187161 0.484215
vt 0.187161 0.468652
vt 0.202724 0.484215
vt 0.187161 0.468652
vt 0.202724 0.484215
vt 0.187161 0.484215
vt 0.202724 0.484215
vt 0.187161 0.484215
vt 0.202724 0.484215
vt 0.202724 0.484215
vt 0.187161 0.484215
vt 0.187161 0.468652
vt 0.202724 0.484215
vt 0.187161 0.468652
vt 0.202724 0.484215
vt 0.187161 0.484215
vt 0.187161 0.468652
vt 0.202724 0.484215
vt 0.187161 0.468652
vt 0.187161 0.484215
vt 0.187161 0.468652
vt 0.187161 0.468652
vt 0.187161 0.484215
vt 0.187161 0.484215
vt 0.187161 0.468652
vt 0.187161 0.468652
vt 0.187161 0.484215
vt 0.187161 0.468652
vt 0.187161 0.468652
vt 0.187161 0.484215
vt 0.187161 0.468652
vt 0.187161 0.468652
vt 0.187161 0.484215
vt 0.187161 0.468652
vt 0.187161 0.468652
vt 0.187161 0.484215
vt 0.187161 0.468652
vt 0.187161 0.468652
vt 0.187161 0.484215
vt 0.187161 0.468652
vt 0.187161 0.484215
vt 0.202724 0.484215
vt 0.187161 0.484215
vt 0.187161 0.468652
vt 0.187161 0.468652
vt 0.187161 0.484215
vt 0.187161 0.468652
vt 0.187161 0.484215
vt 0.187161 0.468652
vt 0.187161 0.484215
vt 0.187161 0.468652
vt 0.187161 0.468652
vt 0.187161 0.484215
vt 0.187161 0.468652
vt 0.187161 0.484215
vt 0.187161 0.468652
vt 0.187161 0.484215
vt 0.187161 0.468652
vt 0.187161 0.468652
vt 0.187161 0.484215
vt 0.187161 0.468652
vt 0.187161 0.484215
vt 0.187161 0.468652
vt 0.187161 0.484215
vt 0.187161 0.468652
vt 0.187161 0.468652
vt 0.202724 0.484215
vt 0.187161 0.468652
vt 0.187161 0.484215
vt 0.187161 0.468652
vt 0.187161 0.468652
vt 0.187161 0.484215
vt 0.187161 0.468652
vt 0.187161 0.468652
vt 0.187161 0.468652
vt 0.187161 0.468652
vt 0.202724 0.484215
vt 0.202724 0.484215
vt 0.187161 0.484215
vt 0.202724 0.484215
vt 0.187161 0.484215
vt 0.202724 0.484215
vt 0.187161 0.484215
vt 0.202724 0.484215
vt 0.187161 0.484215
vt 0.202724 0.484215
vt 0.202724 0.484215
vt 0.202724 0.484215
vt 0.257308 0.515428
vt 0.226152 0.515428
vt 0.226152 0.530994
vt 0.202724 0.484215
vt 0.187165 0.492032
vt 0.202746 0.523201
vt 0.218328 0.492032
vt 0.155939 0.531006
vt 0.109175 0.499838
vt 0.093587 0.531006
vt 0.202724 0.484215
vt 0.155939 0.531006
vt 0.109175 0.499838
vt 0.093587 0.531006
vt 0.202724 0.484215
vt 0.155939 0.531006
vt 0.109175 0.499838
vt 0.093587 0.531006
vt 0.202724 0.484215
vt 0.155939 0.531006
vt 0.109175 0.499838
vt 0.093587 0.531006
vt 0.202724 0.484215
vt 0.155939 0.468638
vt 0.109175 0.499806
vt 0.093587 0.468638
vt 0.202724 0.484215
vt 0.062400 0.499841
vt 0.077974 0.523201
vt 0.085761 0.515414
vt 0.202724 0.484215
vt 0.046782 0.530999
vt 0.062366 0.515414
vt 0.015612 0.484245
vt 0.062400 0.499841
vt 0.077974 0.523201
vt 0.085761 0.515414
vt 0.202724 0.484215
vt 0.202724 0.484215
vt 0.023403 0.484205
vt 0.046762 0.468640
vt 0.023403 0.468640
vt 0.202724 0.484215
vt 0.202724 0.484215
vt 0.187161 0.468652
vt 0.202724 0.484215
vt 0.202724 0.484215
vt 0.187161 0.484215
vt 0.226152 0.515428
vt 0.257308 0.515428
vt 0.226152 0.530994
vt 0.202746 0.523201
vt 0.187165 0.492032
vt 0.218328 0.492032
vt 0.109175 0.499838
vt 0.155939 0.531006
vt 0.093587 0.531006
vt 0.187161 0.484215
vt 0.187161 0.484215
vt 0.109175 0.499838
vt 0.155939 0.531006
vt 0.093587 0.531006
vt 0.187161 0.484215
vt 0.109175 0.499838
vt 0.155939 0.531006
vt 0.093587 0.531006
vt 0.187161 0.484215
vt 0.109175 0.499838
vt 0.155939 0.531006
vt 0.093587 0.531006
vt 0.187161 0.484215
vt 0.109175 0.499806
vt 0.155939 0.468638
vt 0.093587 0.468638
vt 0.187161 0.484215
vt 0.077974 0.523201
vt 0.062400 0.499841
vt 0.085761 0.515414
vt 0.062366 0.515414
vt 0.046782 0.530999
vt 0.015612 0.484245
vt 0.077974 0.523201
vt 0.062400 0.499841
vt 0.085761 0.515414
vt 0.187161 0.484215
vt 0.187161 0.484215
vt 0.046762 0.468640
vt 0.023403 0.484205
vt 0.023403 0.468640
vt 0.187161 0.484215
vt 0.187161 0.484215
vt 0.187161 0.468652
vn 0.0000 0.0000 1.0000
vn -0.0000 0.0000 -1.0000
vn 0.0000 -1.0000 0.0000
vn 0.0000 1.0000 0.0000
vn 1.0000 0.0000 -0.0000
vn -1.0000 0.0000 0.0000
usemtl lambert0.005
s off
f 1/1/1 2/2/1 3/3/1
f 1/1/1 4/4/1 2/5/1
f 2/6/1 5/7/1 6/8/1
f 2/6/1 7/9/1 5/10/1
f 8/11/1 9/12/1 10/13/1
f 8/11/1 3/14/1 9/15/1
f 11/16/1 12/17/1 13/18/1
f 11/16/1 14/19/1 12/20/1
f 12/21/1 15/22/1 16/23/1
f 12/21/1 17/24/1 15/25/1
f 18/26/1 19/27/1 20/28/1
f 18/26/1 13/29/1 19/30/1
f 21/31/1 22/32/1 23/33/1
f 21/31/1 24/34/1 22/35/1
f 22/36/1 25/37/1 26/38/1
f 22/36/1 27/39/1 25/40/1
f 28/41/1 29/42/1 30/43/1
f 28/41/1 23/44/1 29/45/1
f 31/46/1 32/47/1 33/48/1
f 31/46/1 34/49/1 32/50/1
f 32/51/1 35/52/1 36/53/1
f 32/51/1 37/54/1 35/55/1
f 38/56/1 39/57/1 40/58/1
f 38/56/1 33/59/1 39/60/1
f 41/61/1 42/62/1 43/63/1
f 41/61/1 44/64/1 42/65/1
f 45/66/1 46/67/1 47/68/1
f 45/66/1 48/69/1 46/70/1
f 49/71/1 50/72/1 51/73/1
f 50/74/1 52/75/1 51/73/1
f 49/71/1 47/76/1 50/77/1
f 50/74/1 53/78/1 52/79/1
f 52/80/1 53/78/1 54/81/1
f 53/82/1 46/67/1 54/81/1
f 55/83/1 56/84/1 57/85/1
f 55/83/1 58/86/1 56/87/1
f 60/88/2 59/89/2 61/90/2
f 62/91/2 59/89/2 60/92/2
f 64/93/2 63/94/2 65/95/2
f 66/96/2 63/94/2 64/97/2
f 68/98/2 67/99/2 69/100/2
f 70/101/2 67/99/2 68/102/2
f 72/103/2 71/104/2 73/105/2
f 74/106/2 71/104/2 72/107/2
f 76/108/2 75/109/2 77/110/2
f 78/111/2 75/109/2 76/112/2
f 80/113/2 79/114/2 81/115/2
f 80/113/2 81/116/2 82/117/2
f 83/118/2 79/114/2 80/119/2
f 84/120/2 80/121/2 82/117/2
f 81/122/2 85/123/2 82/117/2
f 86/124/2 85/123/2 81/115/2
f 88/125/2 87/126/2 89/127/2
f 90/128/2 87/126/2 88/129/2
f 92/130/2 91/131/2 93/132/2
f 94/133/2 91/131/2 92/134/2
f 74/106/3 61/135/3 71/136/3
f 60/88/3 61/135/3 74/137/3
f 52/75/3 41/61/3 51/73/3
f 44/64/3 41/61/3 52/79/3
f 42/62/3 73/138/3 43/63/3
f 72/103/3 73/138/3 42/65/3
f 62/91/3 65/139/3 59/140/3
f 64/93/3 65/139/3 62/141/3
f 56/84/3 50/74/3 57/85/3
f 53/78/3 50/74/3 56/87/3
f 66/96/3 69/142/3 63/143/3
f 68/98/3 69/142/3 66/144/3
f 70/101/3 77/145/3 67/146/3
f 76/108/3 77/145/3 70/147/3
f 78/111/3 89/148/3 75/149/3
f 88/125/3 89/148/3 78/150/3
f 90/128/3 93/151/3 87/152/3
f 92/130/3 93/151/3 90/153/3
f 40/154/4 47/76/4 49/155/4
f 40/154/4 39/57/4 47/68/4
f 36/156/4 54/157/4 46/70/4
f 36/156/4 35/52/4 54/81/4
f 47/158/4 58/86/4 55/159/4
f 47/158/4 46/67/4 58/160/4
f 30/161/4 33/59/4 38/162/4
f 30/161/4 29/42/4 33/48/4
f 26/163/4 37/54/4 32/50/4
f 26/163/4 25/37/4 37/164/4
f 33/165/4 48/69/4 45/166/4
f 33/165/4 32/47/4 48/167/4
f 20/168/4 23/44/4 28/169/4
f 20/168/4 19/27/4 23/33/4
f 16/170/4 27/39/4 22/35/4
f 16/170/4 15/22/4 27/171/4
f 23/172/4 34/49/4 31/173/4
f 23/172/4 22/32/4 34/174/4
f 10/175/4 13/29/4 18/176/4
f 10/175/4 9/12/4 13/18/4
f 6/177/4 17/24/4 12/20/4
f 6/177/4 5/7/4 17/178/4
f 13/179/4 24/34/4 21/180/4
f 13/179/4 12/17/4 24/181/4
f 91/131/4 82/182/4 85/183/4
f 91/131/4 94/133/4 82/117/4
f 86/184/4 3/14/4 8/185/4
f 86/184/4 81/122/4 3/3/4
f 80/121/4 7/9/4 2/5/4
f 80/121/4 84/120/4 7/186/4
f 3/187/4 14/19/4 11/188/4
f 3/187/4 2/2/4 14/189/4
f 79/114/4 4/4/4 1/190/4
f 79/114/4 83/118/4 4/191/4
f 81/116/5 1/192/5 3/3/5
f 81/116/5 79/193/5 1/190/5
f 9/194/5 11/195/5 13/18/5
f 9/194/5 3/14/5 11/188/5
f 19/196/5 21/197/5 23/33/5
f 19/196/5 13/29/5 21/180/5
f 29/198/5 31/199/5 33/48/5
f 29/198/5 23/44/5 31/173/5
f 39/200/5 45/201/5 47/68/5
f 39/200/5 33/59/5 45/166/5
f 50/74/5 55/202/5 57/85/5
f 50/74/5 47/76/5 55/159/5
f 93/151/5 85/203/5 87/152/5
f 10/204/5 87/205/5 85/206/5
f 93/151/5 91/207/5 85/183/5
f 10/208/5 85/209/5 8/210/5
f 10/211/5 75/212/5 87/213/5
f 85/123/5 86/124/5 8/185/5
f 75/109/5 89/214/5 87/152/5
f 75/215/5 10/216/5 20/217/5
f 10/175/5 18/218/5 20/28/5
f 20/219/5 67/220/5 75/221/5
f 67/99/5 77/222/5 75/149/5
f 67/223/5 20/224/5 30/225/5
f 20/168/5 28/226/5 30/43/5
f 30/227/5 63/228/5 67/229/5
f 63/94/5 69/230/5 67/146/5
f 30/231/5 59/232/5 63/233/5
f 63/94/5 59/234/5 65/95/5
f 30/235/5 40/236/5 59/237/5
f 40/238/5 71/239/5 59/240/5
f 30/161/5 38/241/5 40/58/5
f 71/104/5 61/242/5 59/140/5
f 71/243/5 40/244/5 41/245/5
f 41/61/5 40/246/5 49/155/5
f 73/138/5 71/247/5 41/248/5
f 41/61/5 49/249/5 51/73/5
f 73/138/5 41/250/5 43/63/5
f 82/182/6 92/251/6 90/153/6
f 90/252/6 5/253/6 82/254/6
f 94/133/6 92/251/6 82/117/6
f 82/255/6 5/256/6 7/257/6
f 78/258/6 5/259/6 90/260/6
f 84/120/6 82/261/6 7/186/6
f 88/125/6 78/262/6 90/153/6
f 5/263/6 78/264/6 15/265/6
f 17/24/6 5/266/6 15/25/6
f 70/267/6 15/268/6 78/269/6
f 76/108/6 70/270/6 78/150/6
f 15/271/6 70/272/6 25/273/6
f 27/39/6 15/274/6 25/40/6
f 66/275/6 25/276/6 70/277/6
f 68/98/6 66/278/6 70/147/6
f 62/279/6 25/280/6 66/281/6
f 62/91/6 66/278/6 64/97/6
f 35/282/6 25/283/6 62/284/6
f 74/285/6 35/286/6 62/287/6
f 37/54/6 25/288/6 35/55/6
f 60/88/6 74/289/6 62/141/6
f 35/290/6 74/291/6 44/292/6
f 35/52/6 44/293/6 54/81/6
f 74/106/6 72/294/6 44/295/6
f 54/157/6 44/293/6 52/79/6
f 44/64/6 72/294/6 42/65/6
f 4/4/6 80/121/6 2/5/6
f 83/118/6 80/121/6 4/191/6
f 14/19/6 6/177/6 12/20/6
f 2/2/6 6/177/6 14/189/6
f 24/34/6 16/170/6 22/35/6
f 12/17/6 16/170/6 24/181/6
f 34/49/6 26/163/6 32/50/6
f 22/32/6 26/163/6 34/174/6
f 48/69/6 36/156/6 46/70/6
f 32/47/6 36/156/6 48/167/6
f 58/86/6 53/82/6 56/87/6
f 46/67/6 53/82/6 58/160/6
